<?xml version="1.0" encoding="UTF-8"?>
<svg width="396px" height="808px" viewBox="0 0 396 808" version="1.1" xmlns="http://www.w3.org/2000/svg" xmlns:xlink="http://www.w3.org/1999/xlink">
    <g id="Page-1" stroke="none" stroke-width="1" fill="none" fill-rule="evenodd" fill-opacity="0.2">
        <path d="M393.609658,231.066398 L394.500478,231.066398 C395.328641,231.066398 396,230.395282 396,229.559325 L396,172.814921 C396,171.982587 395.335266,171.307847 394.500478,171.307847 L393.609658,171.307847 L393.609658,75.0004787 C393.609658,33.5788581 360.021885,0 318.612631,0 L77.3873688,0 C35.9676547,0 2.39034205,33.5757077 2.39034205,75.0004787 L2.39034205,101.987928 L1.49952154,101.987928 C0.67135866,101.987928 0,102.655287 0,103.487257 L0,133.156607 C0,133.984663 0.664733641,134.655936 1.49952154,134.655936 L2.39034205,134.655936 L2.39034205,171.307847 L1.49952154,171.307847 C0.67135866,171.307847 0,171.978964 0,172.814921 L0,229.559325 C0,230.391659 0.664733641,231.066398 1.49952154,231.066398 L2.39034205,231.066398 L2.39034205,244.61167 L1.49952154,244.61167 C0.67135866,244.61167 0,245.282787 0,246.118744 L0,302.863148 C0,303.695482 0.664733641,304.370221 1.49952154,304.370221 L2.39034205,304.370221 L2.39034205,732.935135 C2.39034205,774.356756 35.9781154,807.935614 77.3873688,807.935614 L318.612631,807.935614 C360.032345,807.935614 393.609658,774.359906 393.609658,732.935135 L393.609658,231.066398 Z M197.60161,783.235412 C214.323503,783.235412 227.879276,769.67964 227.879276,752.957746 C227.879276,736.235853 214.323503,722.68008 197.60161,722.68008 C180.879716,722.68008 167.323944,736.235853 167.323944,752.957746 C167.323944,769.67964 180.879716,783.235412 197.60161,783.235412 Z M197.60161,780.04829 C212.563304,780.04829 224.692153,767.91944 224.692153,752.957746 C224.692153,737.996053 212.563304,725.867203 197.60161,725.867203 C182.639916,725.867203 170.511066,737.996053 170.511066,752.957746 C170.511066,767.91944 182.639916,780.04829 197.60161,780.04829 Z M135.452716,57.3682093 C138.973115,57.3682093 141.826962,54.5143623 141.826962,50.9939638 C141.826962,47.4735652 138.973115,44.6197183 135.452716,44.6197183 C131.932318,44.6197183 129.078471,47.4735652 129.078471,50.9939638 C129.078471,54.5143623 131.932318,57.3682093 135.452716,57.3682093 Z M198.39839,29.4808853 C200.598639,29.4808853 202.382294,27.697231 202.382294,25.4969819 C202.382294,23.2967328 200.598639,21.5130785 198.39839,21.5130785 C196.198141,21.5130785 194.414487,23.2967328 194.414487,25.4969819 C194.414487,27.697231 196.198141,29.4808853 198.39839,29.4808853 Z M169.70997,47.806841 C167.952154,47.806841 166.527163,49.2373462 166.527163,50.9939638 C166.527163,52.7541631 167.947886,54.1810865 169.70997,54.1810865 L227.086811,54.1810865 C228.844627,54.1810865 230.269618,52.7505814 230.269618,50.9939638 C230.269618,49.2337645 228.848894,47.806841 227.086811,47.806841 L169.70997,47.806841 Z" id="Apple-iPhone-6" fill="#000000"></path>
    </g>
</svg>