
<svg width="1769px" height="984px" viewBox="0 0 1769 984" version="1.1" xmlns="http://www.w3.org/2000/svg" xmlns:xlink="http://www.w3.org/1999/xlink">
        <path d="M1359.8,0 L209.2,0 C78.45,0 0,64.8 0,144 L0,840 C0,919.2 52.3,984 209.2,984 L1359.8,984 C1516.7,984 1569,919.2 1569,840 L1569,144 C1569,64.8 1490.55,0 1359.8,0 L1359.8,0 L1359.8,0 Z M849.875,48 C857.06625,48 862.95,53.4 862.95,60 C862.95,66.6 857.06625,72 849.875,72 C842.63145,72 836.8,66.6 836.8,60 C836.8,53.4 842.63145,48 849.875,48 L849.875,48 L849.875,48 Z M719.125,48 C726.31625,48 732.2,53.4 732.2,60 C732.2,66.6 726.31625,72 719.125,72 C711.88145,72 706.05,66.6 706.05,60 C706.05,53.4 711.88145,48 719.125,48 L719.125,48 L719.125,48 Z" id="Nexus_10" stroke="none" fill-opacity="0.8" fill="#FFFFFF" fill-rule="evenodd"></path>
</svg>