<svg width="396" height="804" viewBox="-431 -359 396 808" version="1.1" xmlns="http://www.w3.org/2000/svg" xmlns:xlink="http://www.w3.org/1999/xlink">
    <path d="M-37.3903421,-127.933602 L-36.4995215,-127.933602 C-35.6713587,-127.933602 -35,-128.604718 -35,-129.440675 L-35,-186.185079 C-35,-187.017413 -35.6647336,-187.692153 -36.4995215,-187.692153 L-37.3903421,-187.692153 L-37.3903421,-283.999521 C-37.3903421,-325.421142 -70.9781154,-359 -112.387369,-359 L-353.612631,-359 C-395.032345,-359 -428.609658,-325.424292 -428.609658,-283.999521 L-428.609658,-257.012072 L-429.500478,-257.012072 C-430.328641,-257.012072 -431,-256.344713 -431,-255.512743 L-431,-225.843393 C-431,-225.015337 -430.335266,-224.344064 -429.500478,-224.344064 L-428.609658,-224.344064 L-428.609658,-187.692153 L-429.500478,-187.692153 C-430.328641,-187.692153 -431,-187.021036 -431,-186.185079 L-431,-129.440675 C-431,-128.608341 -430.335266,-127.933602 -429.500478,-127.933602 L-428.609658,-127.933602 L-428.609658,-114.38833 L-429.500478,-114.38833 C-430.328641,-114.38833 -431,-113.717213 -431,-112.881256 L-431,-56.1368522 C-431,-55.3045185 -430.335266,-54.6297787 -429.500478,-54.6297787 L-428.609658,-54.6297787 L-428.609658,373.935135 C-428.609658,415.356756 -395.021885,448.935614 -353.612631,448.935614 L-112.387369,448.935614 C-70.9676547,448.935614 -37.3903421,415.359906 -37.3903421,373.935135 L-37.3903421,-127.933602 Z M-404.706237,-260.995976 L-404.706237,349.338028 L-61.2937626,349.338028 L-61.2937626,-260.995976 L-404.706237,-260.995976 Z M-233.39839,424.235412 C-216.676497,424.235412 -203.120724,410.67964 -203.120724,393.957746 C-203.120724,377.235853 -216.676497,363.68008 -233.39839,363.68008 C-250.120284,363.68008 -263.676056,377.235853 -263.676056,393.957746 C-263.676056,410.67964 -250.120284,424.235412 -233.39839,424.235412 Z M-233.39839,421.04829 C-218.436696,421.04829 -206.307847,408.91944 -206.307847,393.957746 C-206.307847,378.996053 -218.436696,366.867203 -233.39839,366.867203 C-248.360084,366.867203 -260.488934,378.996053 -260.488934,393.957746 C-260.488934,408.91944 -248.360084,421.04829 -233.39839,421.04829 Z M-295.547284,-301.631791 C-292.026885,-301.631791 -289.173038,-304.485638 -289.173038,-308.006036 C-289.173038,-311.526435 -292.026885,-314.380282 -295.547284,-314.380282 C-299.067682,-314.380282 -301.921529,-311.526435 -301.921529,-308.006036 C-301.921529,-304.485638 -299.067682,-301.631791 -295.547284,-301.631791 Z M-232.60161,-329.519115 C-230.401361,-329.519115 -228.617706,-331.302769 -228.617706,-333.503018 C-228.617706,-335.703267 -230.401361,-337.486922 -232.60161,-337.486922 C-234.801859,-337.486922 -236.585513,-335.703267 -236.585513,-333.503018 C-236.585513,-331.302769 -234.801859,-329.519115 -232.60161,-329.519115 Z M-261.29003,-311.193159 C-263.047846,-311.193159 -264.472837,-309.762654 -264.472837,-308.006036 C-264.472837,-306.245837 -263.052114,-304.818913 -261.29003,-304.818913 L-203.913189,-304.818913 C-202.155373,-304.818913 -200.730382,-306.249419 -200.730382,-308.006036 C-200.730382,-309.766236 -202.151106,-311.193159 -203.913189,-311.193159 L-261.29003,-311.193159 Z" id="Apple-iPhone-6" stroke="none" fill="#FFFFFF" fill-rule="evenodd"></path>
</svg>