
<svg width="1440px" height="984px" viewBox="-495 -203 1440 984" version="1.1" xmlns="http://www.w3.org/2000/svg" xmlns:xlink="http://www.w3.org/1999/xlink">
    <path d="M753,-203 L-303,-203 C-423,-203 -495,-138.2 -495,-59 L-495,637 C-495,716.2 -447,781 -303,781 L753,781 C897,781 945,716.2 945,637 L945,-59 C945,-138.2 873,-203 753,-203 L753,-203 L753,-203 L753,-203 Z M285,-155 C291.6,-155 297,-149.6 297,-143 C297,-136.4 291.6,-131 285,-131 C278.352,-131 273,-136.4 273,-143 C273,-149.6 278.352,-155 285,-155 L285,-155 L285,-155 L285,-155 Z M165,-155 C171.6,-155 177,-149.6 177,-143 C177,-136.4 171.6,-131 165,-131 C158.352,-131 153,-136.4 153,-143 C153,-149.6 158.352,-155 165,-155 L165,-155 L165,-155 L165,-155 Z M273,685 L177,685 L177,661 L273,661 L273,685 L273,685 L273,685 L273,685 Z" id="Nexus_10" stroke="none" fill-opacity="0.4" fill="#000000" fill-rule="evenodd"></path>
</svg>